<svg data-v-fde0c5aa="" xmlns="http://www.w3.org/2000/svg" viewBox="0 0 300 300" class="font"><!----><defs data-v-fde0c5aa=""><!----></defs><rect data-v-fde0c5aa="" fill="transparent" x="0" y="0" width="300px" height="300px" class="logo-background-square"></rect><defs data-v-fde0c5aa=""><linearGradient data-v-fde0c5aa="" gradientTransform="rotate(25)" id="d8eaa1ab-1a5b-4513-bc80-218ddb1a88ca" x1="0%" y1="0%" x2="100%" y2="0%"><stop data-v-fde0c5aa="" offset="0%" stop-color="#181B80" stop-opacity="1"></stop><stop data-v-fde0c5aa="" offset="100%" stop-color="#181ED9" stop-opacity="1"></stop></linearGradient></defs><g data-v-fde0c5aa="" id="8db652b9-192a-4d73-b494-80fa1cdae647" fill="url(#d8eaa1ab-1a5b-4513-bc80-218ddb1a88ca)" transform="matrix(7.684247518298189,0,0,7.684247518298189,39.69263007751227,87.79601795159545)"><path d="M0.30 3.04L7.49 3.04L7.75 4.85L7.01 4.85L7.01 4.85Q6.84 3.74 6.23 3.74L6.23 3.74L4.75 3.74L4.75 12.30L5.43 12.30L5.43 13.01L2.32 13.01L2.32 12.30L3.04 12.30L3.04 3.74L1.55 3.74L1.55 3.74Q0.94 3.74 0.78 4.85L0.78 4.85L0.04 4.85L0.30 3.04ZM8.89 9.67L8.89 9.67L8.89 9.67Q8.89 10.78 9.20 11.51L9.20 11.51L9.20 11.51Q9.61 12.50 10.49 12.50L10.49 12.50L10.49 12.50Q10.92 12.50 11.24 12.24L11.24 12.24L11.24 12.24Q11.57 11.99 11.77 11.52L11.77 11.52L11.77 11.52Q11.92 11.15 12.00 10.68L12.00 10.68L12.00 10.68Q12.09 10.22 12.09 9.69L12.09 9.69L12.09 9.69Q12.09 8.58 11.77 7.81L11.77 7.81L11.77 7.81Q11.35 6.77 10.49 6.77L10.49 6.77L10.49 6.77Q10.05 6.77 9.72 7.04L9.72 7.04L9.72 7.04Q9.40 7.31 9.19 7.78L9.19 7.78L9.19 7.78Q9.06 8.15 8.97 8.63L8.97 8.63L8.97 8.63Q8.89 9.12 8.89 9.67ZM13.67 9.64L13.67 9.64L13.67 9.64Q13.67 11.51 12.87 12.34L12.87 12.34L12.87 12.34Q12.07 13.15 10.22 13.15L10.22 13.15L10.22 13.15Q7.29 13.15 7.29 9.64L7.29 9.64L7.29 9.64Q7.29 6.11 10.65 6.11L10.65 6.11L10.65 6.11Q13.67 6.11 13.67 9.64ZM18.95 11.85L18.94 7.46L18.94 7.46Q18.57 7.12 18.23 6.94L18.23 6.94L18.23 6.94Q17.89 6.77 17.56 6.77L17.56 6.77L17.56 6.77Q17.37 6.77 17.17 6.90L17.17 6.90L17.18 6.90L17.18 6.90Q16.20 7.62 16.20 9.67L16.20 9.67L16.20 9.67Q16.20 11.96 17.38 12.44L17.38 12.44L17.38 12.44L17.38 12.44Q17.47 12.48 17.54 12.49L17.54 12.49L17.54 12.49Q17.61 12.51 17.68 12.51L17.68 12.51L17.68 12.51Q18.01 12.51 18.38 12.30L18.38 12.30L18.38 12.30Q18.74 12.10 18.95 11.85L18.95 11.85ZM18.25 3.70L18.25 3.04L20.52 3.04L20.52 12.35L21.22 12.35L21.22 13.01L18.95 13.01L18.95 12.74L18.95 12.74Q18.35 13.15 17.48 13.15L17.48 13.15L17.48 13.15Q14.61 13.15 14.61 9.64L14.61 9.64L14.61 9.64Q14.61 6.11 17.40 6.11L17.40 6.11L17.40 6.11Q18.31 6.11 18.94 6.52L18.94 6.52L18.94 6.52Q18.94 5.79 18.94 5.12L18.94 5.12L18.94 5.12Q18.94 4.44 18.94 3.70L18.94 3.70L18.25 3.70ZM23.88 9.67L23.88 9.67L23.88 9.67Q23.88 10.78 24.20 11.51L24.20 11.51L24.20 11.51Q24.61 12.50 25.48 12.50L25.48 12.50L25.48 12.50Q25.92 12.50 26.24 12.24L26.24 12.24L26.24 12.24Q26.56 11.99 26.77 11.52L26.77 11.52L26.77 11.52Q26.92 11.15 27.00 10.68L27.00 10.68L27.00 10.68Q27.08 10.22 27.08 9.69L27.08 9.69L27.08 9.69Q27.08 8.58 26.77 7.81L26.77 7.81L26.77 7.81Q26.35 6.77 25.49 6.77L25.49 6.77L25.49 6.77Q25.05 6.77 24.72 7.04L24.72 7.04L24.72 7.04Q24.40 7.31 24.19 7.78L24.19 7.78L24.19 7.78Q24.06 8.15 23.97 8.63L23.97 8.63L23.97 8.63Q23.88 9.12 23.88 9.67ZM28.67 9.64L28.67 9.64L28.67 9.64Q28.67 11.51 27.86 12.34L27.86 12.34L27.86 12.34Q27.07 13.15 25.22 13.15L25.22 13.15L25.22 13.15Q22.29 13.15 22.29 9.64L22.29 9.64L22.29 9.64Q22.29 6.11 25.65 6.11L25.65 6.11L25.65 6.11Q28.67 6.11 28.67 9.64Z"></path></g><!----><!----></svg>