<svg data-v-fde0c5aa="" xmlns="http://www.w3.org/2000/svg" viewBox="0 0 300 300" class="iconLeftSlogan"><!----><defs data-v-fde0c5aa=""><!----></defs><rect data-v-fde0c5aa="" fill="transparent" x="0" y="0" width="300px" height="300px" class="logo-background-square"></rect><defs data-v-fde0c5aa=""><!----></defs><g data-v-fde0c5aa="" id="0189ffa9-be1d-4393-8a25-4833213af057" fill="#000000" transform="matrix(4.7913042164968855,0,0,4.7913042164968855,122.63331212049158,101.21439337271335)"><path d="M0.30 3.04L7.49 3.04L7.75 4.85L7.01 4.85L7.01 4.85Q6.84 3.74 6.23 3.74L6.23 3.74L4.75 3.74L4.75 12.30L5.43 12.30L5.43 13.01L2.32 13.01L2.32 12.30L3.04 12.30L3.04 3.74L1.55 3.74L1.55 3.74Q0.94 3.74 0.78 4.85L0.78 4.85L0.04 4.85L0.30 3.04ZM8.89 9.67L8.89 9.67L8.89 9.67Q8.89 10.78 9.20 11.51L9.20 11.51L9.20 11.51Q9.61 12.50 10.49 12.50L10.49 12.50L10.49 12.50Q10.92 12.50 11.24 12.24L11.24 12.24L11.24 12.24Q11.57 11.99 11.77 11.52L11.77 11.52L11.77 11.52Q11.92 11.15 12.00 10.68L12.00 10.68L12.00 10.68Q12.09 10.22 12.09 9.69L12.09 9.69L12.09 9.69Q12.09 8.58 11.77 7.81L11.77 7.81L11.77 7.81Q11.35 6.77 10.49 6.77L10.49 6.77L10.49 6.77Q10.05 6.77 9.72 7.04L9.72 7.04L9.72 7.04Q9.40 7.31 9.19 7.78L9.19 7.78L9.19 7.78Q9.06 8.15 8.97 8.63L8.97 8.63L8.97 8.63Q8.89 9.12 8.89 9.67ZM13.67 9.64L13.67 9.64L13.67 9.64Q13.67 11.51 12.87 12.34L12.87 12.34L12.87 12.34Q12.07 13.15 10.22 13.15L10.22 13.15L10.22 13.15Q7.29 13.15 7.29 9.64L7.29 9.64L7.29 9.64Q7.29 6.11 10.65 6.11L10.65 6.11L10.65 6.11Q13.67 6.11 13.67 9.64ZM18.95 11.85L18.94 7.46L18.94 7.46Q18.57 7.12 18.23 6.94L18.23 6.94L18.23 6.94Q17.89 6.77 17.56 6.77L17.56 6.77L17.56 6.77Q17.37 6.77 17.17 6.90L17.17 6.90L17.18 6.90L17.18 6.90Q16.20 7.62 16.20 9.67L16.20 9.67L16.20 9.67Q16.20 11.96 17.38 12.44L17.38 12.44L17.38 12.44L17.38 12.44Q17.47 12.48 17.54 12.49L17.54 12.49L17.54 12.49Q17.61 12.51 17.68 12.51L17.68 12.51L17.68 12.51Q18.01 12.51 18.38 12.30L18.38 12.30L18.38 12.30Q18.74 12.10 18.95 11.85L18.95 11.85ZM18.25 3.70L18.25 3.04L20.52 3.04L20.52 12.35L21.22 12.35L21.22 13.01L18.95 13.01L18.95 12.74L18.95 12.74Q18.35 13.15 17.48 13.15L17.48 13.15L17.48 13.15Q14.61 13.15 14.61 9.64L14.61 9.64L14.61 9.64Q14.61 6.11 17.40 6.11L17.40 6.11L17.40 6.11Q18.31 6.11 18.94 6.52L18.94 6.52L18.94 6.52Q18.94 5.79 18.94 5.12L18.94 5.12L18.94 5.12Q18.94 4.44 18.94 3.70L18.94 3.70L18.25 3.70ZM23.88 9.67L23.88 9.67L23.88 9.67Q23.88 10.78 24.20 11.51L24.20 11.51L24.20 11.51Q24.61 12.50 25.48 12.50L25.48 12.50L25.48 12.50Q25.92 12.50 26.24 12.24L26.24 12.24L26.24 12.24Q26.56 11.99 26.77 11.52L26.77 11.52L26.77 11.52Q26.92 11.15 27.00 10.68L27.00 10.68L27.00 10.68Q27.08 10.22 27.08 9.69L27.08 9.69L27.08 9.69Q27.08 8.58 26.77 7.81L26.77 7.81L26.77 7.81Q26.35 6.77 25.49 6.77L25.49 6.77L25.49 6.77Q25.05 6.77 24.72 7.04L24.72 7.04L24.72 7.04Q24.40 7.31 24.19 7.78L24.19 7.78L24.19 7.78Q24.06 8.15 23.97 8.63L23.97 8.63L23.97 8.63Q23.88 9.12 23.88 9.67ZM28.67 9.64L28.67 9.64L28.67 9.64Q28.67 11.51 27.86 12.34L27.86 12.34L27.86 12.34Q27.07 13.15 25.22 13.15L25.22 13.15L25.22 13.15Q22.29 13.15 22.29 9.64L22.29 9.64L22.29 9.64Q22.29 6.11 25.65 6.11L25.65 6.11L25.65 6.11Q28.67 6.11 28.67 9.64Z"></path></g><defs data-v-fde0c5aa=""><linearGradient data-v-fde0c5aa="" gradientTransform="rotate(25)" id="38d0ed22-eccc-45a1-996f-86f1e730dd7a" x1="0%" y1="0%" x2="100%" y2="0%"><stop data-v-fde0c5aa="" offset="0%" stop-color="#181B80" stop-opacity="1"></stop><stop data-v-fde0c5aa="" offset="100%" stop-color="#181ED9" stop-opacity="1"></stop></linearGradient></defs><g data-v-fde0c5aa="" id="9dfa511f-7538-4726-baaf-244019e878af" stroke="url(#38d0ed22-eccc-45a1-996f-86f1e730dd7a)" fill="none" transform="matrix(1.269498667274455,0,0,1.269498667274455,11.437548787635592,86.52443223562183)"><path stroke-linecap="round" stroke-linejoin="round" stroke-miterlimit="10" d="M65.002 82.5V75h7.5z"></path><circle stroke="#000" stroke-linecap="round" stroke-linejoin="round" stroke-miterlimit="10" cx="36.25" cy="37.501" r="3.75"></circle><path stroke="#000" stroke-linecap="round" stroke-linejoin="round" stroke-miterlimit="10" d="M32.5 33.751l3.749 3.75 6.249-6.251-6.249 6.251zM32.5 48.751l3.749 3.75 6.249-6.251-6.249 6.251zM32.5 63.75l3.749 3.75 6.249-6.25-6.249 6.25zM47.5 33.751h15-15zM47.5 37.501h20-20zM47.5 41.251h10.001H47.5z"></path><circle stroke="#000" stroke-linecap="round" stroke-linejoin="round" stroke-miterlimit="10" cx="36.25" cy="52.501" r="3.75"></circle><path stroke="#000" stroke-linecap="round" stroke-linejoin="round" stroke-miterlimit="10" d="M47.5 48.751h20-20zM47.5 52.501h10.001H47.5zM47.5 56.251h15-15z"></path><circle stroke="#000" stroke-linecap="round" stroke-linejoin="round" stroke-miterlimit="10" cx="36.25" cy="67.5" r="3.75"></circle><path stroke="#000" stroke-linecap="round" stroke-linejoin="round" stroke-miterlimit="10" d="M47.5 63.75h10.001H47.5zM47.5 67.5h20-20zM47.5 71.25h15-15zM51.876 14.999a1.876 1.876 0 1 1-3.751 0 1.876 1.876 0 0 1 3.751 0z"></path><path stroke="#000" stroke-linecap="round" stroke-linejoin="round" stroke-miterlimit="10" d="M60.003 16.25h-5.178c.104-.401.176-.816.176-1.25a5 5 0 0 0-4.999-4.999A4.999 4.999 0 0 0 45 14.999c0 .434.076.849.179 1.25H40a2.501 2.501 0 0 0-2.501 2.5v7.502h25.002v-7.5a2.5 2.5 0 0 0-2.498-2.501z"></path><path stroke="#000" stroke-linecap="round" stroke-linejoin="round" stroke-miterlimit="10" d="M62.501 22.499v3.752H37.499v-3.752H27.498V82.5h37.504l7.5-7.5V22.499z"></path><path stroke="#000" stroke-linecap="round" stroke-linejoin="round" stroke-miterlimit="10" d="M29.999 90a7.5 7.5 0 0 1-7.5-7.5V18.749h15v7.502h25.002V18.75h15V82.5v-.002c0 4.142-3.355 7.5-7.5 7.5L29.999 90z"></path></g><defs data-v-fde0c5aa=""><!----></defs><g data-v-fde0c5aa="" id="6f185336-01b1-4170-a961-13ae6e2394e1" fill="#000000" transform="matrix(0.5485246108961322,0,0,0.5485246108961322,122.57812821800505,173.06814036133937)"><path d="M1.75 4.65C1.75 4.03 2.11 3.08 4.21 3.08C5.91 3.08 6.69 3.82 6.80 4.75L7.88 4.75C7.80 3.36 6.68 2.10 4.21 2.10C1.89 2.10 0.73 3.15 0.73 4.66C0.73 7.84 7.07 6.69 7.07 8.96C7.07 10.05 6.09 10.60 4.52 10.60C2.91 10.60 1.61 10.05 1.54 8.71L0.45 8.71C0.59 10.37 1.71 11.59 4.45 11.59C6.73 11.59 8.12 10.64 8.12 8.92C8.12 5.68 1.75 6.80 1.75 4.65ZM20.86 2.10C18.05 2.10 16.16 4.21 16.16 6.85C16.16 9.48 18.05 11.59 20.86 11.59C23.67 11.59 25.56 9.48 25.56 6.85C25.56 4.21 23.67 2.10 20.86 2.10ZM20.86 10.57C18.61 10.57 17.21 8.93 17.21 6.85C17.21 4.76 18.61 3.12 20.86 3.12C23.11 3.12 24.51 4.76 24.51 6.85C24.51 8.93 23.11 10.57 20.86 10.57ZM35.29 7.92L38.51 7.92L40.75 11.48L42 11.48L39.56 7.74C40.60 7.50 41.80 6.90 41.80 5.11C41.80 3.35 40.59 2.21 38.68 2.21L34.24 2.21L34.24 11.48L35.29 11.48ZM35.29 3.21L38.56 3.21C39.87 3.21 40.75 3.93 40.75 5.11C40.75 6.55 39.49 6.93 38.50 6.93L35.29 6.93ZM57.19 2.21L49.67 2.21L49.67 3.22L52.91 3.22L52.91 11.48L53.96 11.48L53.96 3.22L57.19 3.22ZM79.62 2.10C76.80 2.10 74.91 4.21 74.91 6.85C74.91 9.48 76.80 11.59 79.62 11.59C82.43 11.59 84.32 9.48 84.32 6.85C84.32 4.21 82.43 2.10 79.62 2.10ZM79.62 10.57C77.36 10.57 75.96 8.93 75.96 6.85C75.96 4.76 77.36 3.12 79.62 3.12C81.87 3.12 83.27 4.76 83.27 6.85C83.27 8.93 81.87 10.57 79.62 10.57ZM99.72 2.21L99.72 7.52C99.72 9.67 98.29 10.57 96.82 10.57C95.35 10.57 93.94 9.67 93.94 7.52L93.94 2.21L92.89 2.21L92.89 7.49C92.89 9.95 94.51 11.59 96.82 11.59C99.15 11.59 100.77 9.94 100.77 7.49L100.77 2.21ZM116.51 2.21L108.99 2.21L108.99 3.22L112.22 3.22L112.22 11.48L113.27 11.48L113.27 3.22L116.51 3.22ZM138.61 7.81L142.49 2.21L141.22 2.21L138.08 6.72L134.95 2.21L133.67 2.21L137.56 7.81L137.56 11.48L138.61 11.48ZM154.24 2.10C151.42 2.10 149.53 4.21 149.53 6.85C149.53 9.48 151.42 11.59 154.24 11.59C157.05 11.59 158.94 9.48 158.94 6.85C158.94 4.21 157.05 2.10 154.24 2.10ZM154.24 10.57C151.98 10.57 150.58 8.93 150.58 6.85C150.58 4.76 151.98 3.12 154.24 3.12C156.49 3.12 157.89 4.76 157.89 6.85C157.89 8.93 156.49 10.57 154.24 10.57ZM174.34 2.21L174.34 7.52C174.34 9.67 172.91 10.57 171.44 10.57C169.97 10.57 168.56 9.67 168.56 7.52L168.56 2.21L167.51 2.21L167.51 7.49C167.51 9.95 169.13 11.59 171.44 11.59C173.77 11.59 175.39 9.94 175.39 7.49L175.39 2.21ZM185.60 7.92L188.82 7.92L191.06 11.48L192.30 11.48L189.87 7.74C190.90 7.50 192.11 6.90 192.11 5.11C192.11 3.35 190.89 2.21 188.99 2.21L184.55 2.21L184.55 11.48L185.60 11.48ZM185.60 3.21L188.86 3.21C190.18 3.21 191.06 3.93 191.06 5.11C191.06 6.55 189.80 6.93 188.80 6.93L185.60 6.93ZM214.80 2.21L210.90 2.21L210.90 11.48L214.80 11.48C217.01 11.48 219.06 9.74 219.06 6.85C219.06 3.95 217.01 2.21 214.80 2.21ZM214.76 10.49L211.95 10.49L211.95 3.21L214.76 3.21C216.73 3.21 218.01 4.86 218.01 6.85C218.01 8.83 216.73 10.49 214.76 10.49ZM231.73 2.21L230.41 2.21L226.48 11.48L227.64 11.48L228.77 8.79L233.37 8.79L234.50 11.48L235.66 11.48ZM229.18 7.83L231.07 3.30L232.96 7.83ZM246.65 7.81L250.53 2.21L249.26 2.21L246.12 6.72L242.98 2.21L241.71 2.21L245.60 7.81L245.60 11.48L246.65 11.48Z"></path></g></svg>